<svg width="33" height="26" viewBox="0 0 33 26" fill="none" xmlns="http://www.w3.org/2000/svg">
    <path
        d="M21.4844 4.85449C22.0107 4.85449 22.4512 4.40332 22.4512 3.87695V1.65332C22.4512 1.11621 22.0107 0.686523 21.4844 0.686523C20.9473 0.686523 20.5068 1.11621 20.5068 1.65332V3.87695C20.5068 4.40332 20.9473 4.85449 21.4844 4.85449ZM15.1035 6.92773C15.4902 7.31445 16.124 7.30371 16.4893 6.93848C16.8438 6.5625 16.8545 5.9502 16.4785 5.57422L14.8994 3.98438C14.5234 3.6084 13.9004 3.6084 13.5352 3.98438C13.1592 4.36035 13.1592 4.97266 13.5352 5.34863L15.1035 6.92773ZM26.4795 6.93848C26.8447 7.31445 27.4785 7.31445 27.8652 6.92773L29.4336 5.35938C29.8096 4.9834 29.8096 4.36035 29.4336 3.98438C29.0576 3.6084 28.4453 3.6084 28.0693 3.98438L26.4795 5.57422C26.1035 5.9502 26.1143 6.5625 26.4795 6.93848ZM24.3418 16.5205C25.8887 15.4678 26.8555 13.8242 26.8555 11.9336C26.8555 8.94727 24.46 6.55176 21.4844 6.55176C19.5186 6.55176 17.8105 7.60449 16.9189 9.14062C17.3916 9.61328 17.7783 10.1289 18.1113 10.7627C21.6025 11.0312 23.9873 13.2656 24.3418 16.5205ZM5.61816 22.7402H17.5312C20.6143 22.7402 22.9883 20.3984 22.9883 17.3584C22.9883 14.2969 20.5498 12.0088 17.2734 11.9873C16.0703 9.69922 13.8789 8.17383 11.0537 8.17383C7.47656 8.17383 4.46875 10.9238 4.13574 14.5117C2.30957 15.0381 1.08496 16.6064 1.08496 18.5723C1.08496 21.0215 2.90039 22.7402 5.61816 22.7402ZM29.5195 12.9004H31.7432C32.2803 12.9004 32.71 12.4707 32.71 11.9336C32.71 11.3965 32.2803 10.9668 31.7432 10.9668H29.5195C28.9932 10.9668 28.542 11.3965 28.542 11.9336C28.542 12.4707 28.9932 12.9004 29.5195 12.9004ZM28.0693 19.8936C28.4453 20.2695 29.0576 20.2588 29.4336 19.8828C29.8096 19.5068 29.7988 18.8945 29.4229 18.5186L27.8438 16.9395C27.4678 16.5742 26.8555 16.5635 26.4795 16.9395C26.1035 17.3154 26.1143 17.9385 26.4795 18.3145L28.0693 19.8936Z"
        fill="white" />
    <path
        d="M21.4909 4.85034C22.0173 4.85034 22.4577 4.39917 22.4577 3.8728V1.64917C22.4577 1.11206 22.0173 0.682373 21.4909 0.682373C20.9538 0.682373 20.5134 1.11206 20.5134 1.64917V3.8728C20.5134 4.39917 20.9538 4.85034 21.4909 4.85034ZM15.1101 6.92358C15.4968 7.3103 16.1306 7.29956 16.4958 6.93433C16.8503 6.55835 16.8611 5.94604 16.4851 5.57007L14.906 3.98022C14.53 3.60425 13.907 3.60425 13.5417 3.98022C13.1657 4.3562 13.1657 4.96851 13.5417 5.34448L15.1101 6.92358ZM26.4861 6.93433C26.8513 7.3103 27.4851 7.3103 27.8718 6.92358L29.4402 5.35522C29.8161 4.97925 29.8161 4.3562 29.4402 3.98022C29.0642 3.60425 28.4519 3.60425 28.0759 3.98022L26.4861 5.57007C26.1101 5.94604 26.1208 6.55835 26.4861 6.93433ZM24.3484 16.5164C25.8952 15.4636 26.862 13.8201 26.862 11.9294C26.862 8.94312 24.4665 6.54761 21.4909 6.54761C19.5251 6.54761 17.8171 7.60034 16.9255 9.13647C17.3982 9.60913 17.7849 10.1248 18.1179 10.7585C21.6091 11.0271 23.9939 13.2615 24.3484 16.5164ZM29.5261 12.8962H31.7497C32.2868 12.8962 32.7165 12.4666 32.7165 11.9294C32.7165 11.3923 32.2868 10.9626 31.7497 10.9626H29.5261C28.9997 10.9626 28.5486 11.3923 28.5486 11.9294C28.5486 12.4666 28.9997 12.8962 29.5261 12.8962ZM28.0759 19.8894C28.4519 20.2654 29.0642 20.2546 29.4402 19.8787C29.8161 19.5027 29.8054 18.8904 29.4294 18.5144L27.8503 16.9353C27.4743 16.5701 26.862 16.5593 26.4861 16.9353C26.1101 17.3113 26.1208 17.9343 26.4861 18.3103L28.0759 19.8894Z"
        fill="#F8D74A" />
</svg>